<svg width="30" height="30" viewBox="0 0 30 30" fill="none" xmlns="http://www.w3.org/2000/svg">
<path d="M16.375 20H13.6375V27.5H16.375V20Z" fill="white"/>
<path d="M25.9125 14.0125L15.9125 2.9125C15.7953 2.78156 15.6517 2.67682 15.4913 2.60511C15.3308 2.53339 15.157 2.49633 14.9813 2.49633C14.8055 2.49633 14.6317 2.53339 14.4713 2.60511C14.3108 2.67682 14.1673 2.78156 14.05 2.9125L4.05002 14.0125C3.77677 14.3146 3.59787 14.69 3.53535 15.0925C3.47284 15.495 3.52945 15.907 3.6982 16.2777C3.86695 16.6484 4.14048 16.9617 4.48507 17.1789C4.82966 17.3961 5.23027 17.5077 5.63752 17.5H6.32502V25.4125C6.32502 25.6866 6.37902 25.9581 6.48392 26.2114C6.58883 26.4646 6.74259 26.6947 6.93644 26.8886C7.13028 27.0824 7.3604 27.2362 7.61367 27.3411C7.86694 27.446 8.13839 27.5 8.41252 27.5H11.1375V19.5875C11.1375 19.0339 11.3575 18.5029 11.7489 18.1114C12.1404 17.7199 12.6714 17.5 13.225 17.5H16.775C17.3287 17.5 17.8596 17.7199 18.2511 18.1114C18.6426 18.5029 18.8625 19.0339 18.8625 19.5875V27.5H21.575C21.8492 27.5 22.1206 27.446 22.3739 27.3411C22.6271 27.2362 22.8573 27.0824 23.0511 26.8886C23.2449 26.6947 23.3987 26.4646 23.5036 26.2114C23.6085 25.9581 23.6625 25.6866 23.6625 25.4125V17.5H24.35C24.7541 17.5003 25.1495 17.3833 25.4884 17.1633C25.8273 16.9432 26.0951 16.6296 26.2592 16.2603C26.4233 15.8911 26.4767 15.4821 26.4129 15.0831C26.3492 14.6841 26.171 14.3122 25.9 14.0125H25.9125Z" fill="white"/>
</svg>
